<svg width="22" height="22" viewBox="0 0 22 22" fill="none" xmlns="http://www.w3.org/2000/svg">
<rect width="22" height="22" fill="#E5E5E5"/>
<rect x="1" y="1" width="20" height="20" fill="black" stroke="black"/>
<path d="M11.5 3.06901C11.0014 3.02152 10.5008 2.99849 10 3.00001C9.407 3.00001 8.896 3.15701 8.473 3.46301C8.055 3.76501 7.756 4.18901 7.543 4.67101C7.157 5.54401 7.021 6.68101 7.003 7.87701L11.5 8.87701V3.06901ZM6.71 8.83601L6.381 9.00001C5.96593 9.20777 5.61689 9.52699 5.37298 9.9219C5.12907 10.3168 4.99992 10.7718 5 11.236V13.812C5 16.659 7.22 19 10 19H12C14.78 19 17 16.658 17 13.812V11.123L8 9.12301V9.12601L8.008 9.47901C8.015 9.77901 8.031 10.194 8.061 10.654C8.124 11.591 8.247 12.659 8.474 13.342C8.49767 13.405 8.50841 13.472 8.50555 13.5392C8.50269 13.6064 8.48631 13.6724 8.45738 13.7331C8.42844 13.7938 8.38756 13.8481 8.33717 13.8926C8.28678 13.9372 8.22792 13.9711 8.16411 13.9924C8.10031 14.0136 8.03287 14.0218 7.96582 14.0164C7.89878 14.011 7.83352 13.9921 7.77395 13.9609C7.71437 13.9297 7.66171 13.8868 7.6191 13.8347C7.5765 13.7827 7.54483 13.7226 7.526 13.658C7.253 12.841 7.126 11.658 7.064 10.721C7.02635 10.1491 7.005 9.57617 7 9.00301C7 8.96901 7.003 8.93601 7.01 8.90301L6.71 8.83601ZM17 10.1V8.18701C17 7.05701 16.728 6.14301 16.252 5.41501C15.778 4.68901 15.122 4.18001 14.403 3.82501C13.7989 3.53661 13.1589 3.33044 12.5 3.21201V9.09901L17 10.1Z" fill="white"/>
</svg>
